<?xml version="1.0" standalone="no"?><!DOCTYPE svg PUBLIC "-//W3C//DTD SVG 1.1//EN" "http://www.w3.org/Graphics/SVG/1.1/DTD/svg11.dtd"><svg t="1731116885541" class="icon" viewBox="0 0 1024 1024" version="1.1" xmlns="http://www.w3.org/2000/svg" p-id="973" xmlns:xlink="http://www.w3.org/1999/xlink" width="200" height="200"><path d="M512 960.1536A448.1536 448.1536 0 0 1 195.1232 195.1232a448.1024 448.1024 0 0 1 633.7536 0A448.1536 448.1536 0 0 1 512 960.1536z m0-834.8672a386.6624 386.6624 0 1 0 273.4592 113.2544A384.4096 384.4096 0 0 0 512 125.2864z" fill="#989898" p-id="974"></path><path d="M350.5152 722.3296a48.128 48.128 0 0 1-44.3904-66.56L401.7152 427.52a47.9232 47.9232 0 0 1 25.6-25.6l228.096-95.5904a48.1792 48.1792 0 0 1 63.5904 61.44L629.76 602.112a48.1792 48.1792 0 0 1-27.648 27.648l-234.4448 89.4464a48.7936 48.7936 0 0 1-17.152 3.1232z m113.6128-258.2016l-70.656 168.5504 173.2608-65.9456 65.9456-173.2608z" fill="#989898" p-id="975"></path></svg>